<svg width="60" height="60" viewBox="0 0 60 60" fill="none" xmlns="http://www.w3.org/2000/svg">
<path d="M42.329 34.797C41.6014 34.4286 38.0577 32.6994 37.3954 32.4526C36.7331 32.2167 36.2522 32.0933 35.7696 32.821C35.2978 33.5304 33.9079 35.1544 33.4833 35.628C33.0587 36.1016 32.6413 36.1379 31.9246 35.8167C31.197 35.4484 28.8726 34.6917 26.1127 32.2167C23.9571 30.2988 22.5218 27.9363 22.0954 27.2087C21.6708 26.4901 22.0482 26.0837 22.4075 25.7244C22.7377 25.3942 23.1351 24.8933 23.5034 24.4579C23.8536 24.0224 23.9661 23.7302 24.222 23.2585C24.4579 22.7486 24.3363 22.3512 24.1567 21.9919C23.977 21.6327 22.5308 18.0708 21.9266 16.6518C21.3496 15.2437 20.7454 15.4234 20.3008 15.4234C19.8853 15.3853 19.4026 15.3853 18.9218 15.3853C18.4409 15.3853 17.6552 15.5649 16.9929 16.2544C16.3306 16.9821 14.4599 18.7204 14.4599 22.2369C14.4599 25.7625 17.0492 29.1738 17.4085 29.6837C17.7768 30.1554 22.5018 37.4135 29.7508 40.5327C31.48 41.2603 32.8228 41.6958 33.8716 42.055C35.6008 42.603 37.1794 42.5268 38.426 42.3472C39.805 42.1204 42.6974 40.598 43.3034 38.8978C43.9185 37.1867 43.9185 35.7696 43.7389 35.4484C43.5593 35.1181 43.0875 34.9385 42.3599 34.6173L42.329 34.797ZM29.1829 52.621H29.1448C24.8534 52.621 20.6111 51.4579 16.9058 49.2841L16.0367 48.7651L6.96411 51.1276L9.40282 42.3L8.81673 41.3927C6.4206 37.5829 5.14941 33.1737 5.1496 28.673C5.1496 15.4996 15.9333 4.75403 29.201 4.75403C35.628 4.75403 41.6577 7.25806 46.194 11.7944C48.4317 14.0055 50.2068 16.6402 51.4156 19.5446C52.6243 22.4491 53.2426 25.5652 53.2343 28.7111C53.2161 41.8754 42.4415 52.621 29.1919 52.621H29.1829ZM49.6433 8.34496C44.1236 3.01391 36.8655 0 29.1448 0C13.2206 0 0.254032 12.9103 0.24496 28.7764C0.24496 33.8425 1.56774 38.7853 4.10081 43.1601L0 58.0645L15.329 54.0671C19.5756 56.3566 24.3222 57.5609 29.1466 57.5728H29.1556C45.0889 57.5728 58.0554 44.6625 58.0645 28.7855C58.0645 21.1028 55.0687 13.872 49.6071 8.4375L49.6433 8.34496Z" fill="#2EDA1F"/>
</svg>
